<?xml version="1.0" encoding="utf-8" standalone="no"?>
<!DOCTYPE svg PUBLIC "-//W3C//DTD SVG 1.1//EN"
  "http://www.w3.org/Graphics/SVG/1.1/DTD/svg11.dtd">
<svg height="288pt" version="1.1" viewBox="0 0 432 288" width="432pt" xmlns="http://www.w3.org/2000/svg" xmlns:xlink="http://www.w3.org/1999/xlink">
 <metadata>
  <rdf:RDF xmlns:cc="http://creativecommons.org/ns#" xmlns:dc="http://purl.org/dc/elements/1.1/" xmlns:rdf="http://www.w3.org/1999/02/22-rdf-syntax-ns#">
   <cc:Work>
    <dc:type rdf:resource="http://purl.org/dc/dcmitype/StillImage"/>
    <dc:date>2021-11-22T22:01:51.591547</dc:date>
    <dc:format>image/svg+xml</dc:format>
    <dc:creator>
     <cc:Agent>
      <dc:title>Matplotlib v3.4.3, https://matplotlib.org/</dc:title>
     </cc:Agent>
    </dc:creator>
   </cc:Work>
  </rdf:RDF>
 </metadata>
 <defs>
  <style type="text/css">*{stroke-linecap:butt;stroke-linejoin:round;}</style>
 </defs>
 <g id="figure_1">
  <g id="patch_1">
   <path d="M 0 288 
L 432 288 
L 432 0 
L 0 0 
z
" style="fill:none;"/>
  </g>
  <g id="axes_1">
   <g id="patch_2">
    <path d="M 117.519021 252 
L 325.280979 252 
L 325.280979 34.56 
L 117.519021 34.56 
z
" style="fill:#080c80;"/>
   </g>
   <g id="line2d_1">
    <path clip-path="url(#pc1ccdd3fb3)" d="M 143.787774 111.549124 
L 126.962746 182.601994 
M 143.787774 111.549124 
L 133.204289 79.059137 
M 146.501488 216.610205 
L 126.962746 182.601994 
M 149.486574 45.050926 
L 133.204289 79.059137 
M 165.768859 163.77602 
L 126.962746 182.601994 
M 165.768859 163.77602 
L 143.787774 111.549124 
M 165.768859 163.77602 
L 146.501488 216.610205 
M 181.23703 190.193113 
L 146.501488 216.610205 
M 181.23703 190.193113 
L 165.768859 163.77602 
M 185.578973 66.609703 
L 133.204289 79.059137 
M 185.578973 66.609703 
L 143.787774 111.549124 
M 185.578973 66.609703 
L 149.486574 45.050926 
M 203.760858 201.124323 
L 146.501488 216.610205 
M 203.760858 201.124323 
L 181.23703 190.193113 
M 205.389086 141.002664 
L 143.787774 111.549124 
M 205.389086 141.002664 
L 165.768859 163.77602 
M 205.389086 141.002664 
L 181.23703 190.193113 
M 205.389086 141.002664 
L 185.578973 66.609703 
M 205.389086 141.002664 
L 203.760858 201.124323 
M 221.942743 215.395626 
L 203.760858 201.124323 
M 222.485486 242.116364 
L 146.501488 216.610205 
M 222.485486 242.116364 
L 203.760858 201.124323 
M 222.485486 242.116364 
L 221.942743 215.395626 
M 238.225028 141.609954 
L 203.760858 201.124323 
M 238.225028 141.609954 
L 205.389086 141.002664 
M 240.395999 201.124323 
L 203.760858 201.124323 
M 240.395999 201.124323 
L 221.942743 215.395626 
M 240.395999 201.124323 
L 222.485486 242.116364 
M 240.395999 201.124323 
L 238.225028 141.609954 
M 258.849256 67.216992 
L 185.578973 66.609703 
M 258.849256 67.216992 
L 205.389086 141.002664 
M 258.849256 67.216992 
L 238.225028 141.609954 
M 262.648456 189.585823 
L 238.225028 141.609954 
M 262.648456 189.585823 
L 240.395999 201.124323 
M 283.544055 178.047323 
L 238.225028 141.609954 
M 283.544055 178.047323 
L 262.648456 189.585823 
M 293.313426 44.443636 
L 258.849256 67.216992 
M 297.92674 216.610205 
L 222.485486 242.116364 
M 297.92674 216.610205 
L 240.395999 201.124323 
M 297.92674 216.610205 
L 262.648456 189.585823 
M 297.92674 216.610205 
L 283.544055 178.047323 
M 301.72594 112.156414 
L 238.225028 141.609954 
M 301.72594 112.156414 
L 258.849256 67.216992 
M 301.72594 112.156414 
L 283.544055 178.047323 
M 310.138454 79.666426 
L 258.849256 67.216992 
M 310.138454 79.666426 
L 293.313426 44.443636 
M 310.138454 79.666426 
L 301.72594 112.156414 
M 315.837254 183.209284 
L 283.544055 178.047323 
M 315.837254 183.209284 
L 297.92674 216.610205 
M 315.837254 183.209284 
L 301.72594 112.156414 
L 301.72594 112.156414 
" style="fill:none;stroke:#ffffff;stroke-linecap:square;stroke-width:5;"/>
   </g>
   <g id="matplotlib.axis_1"/>
   <g id="matplotlib.axis_2"/>
   <g id="line2d_2"/>
   <g id="patch_3">
    <path d="M 117.519021 252 
L 117.519021 34.56 
" style="fill:none;stroke:#000000;stroke-linecap:square;stroke-linejoin:miter;stroke-width:0.8;"/>
   </g>
   <g id="patch_4">
    <path d="M 325.280979 252 
L 325.280979 34.56 
" style="fill:none;stroke:#000000;stroke-linecap:square;stroke-linejoin:miter;stroke-width:0.8;"/>
   </g>
   <g id="patch_5">
    <path d="M 117.519021 252 
L 325.280979 252 
" style="fill:none;stroke:#000000;stroke-linecap:square;stroke-linejoin:miter;stroke-width:0.8;"/>
   </g>
   <g id="patch_6">
    <path d="M 117.519021 34.56 
L 325.280979 34.56 
" style="fill:none;stroke:#000000;stroke-linecap:square;stroke-linejoin:miter;stroke-width:0.8;"/>
   </g>
   <g id="PatchCollection_1">
    <path clip-path="url(#pc1ccdd3fb3)" d="M 165.768859 163.77602 
L 181.23703 190.193113 
L 205.389086 141.002664 
L 165.768859 163.77602 
" style="fill:none;stroke:#ffffff;stroke-width:10;"/>
    <path clip-path="url(#pc1ccdd3fb3)" d="M 238.225028 141.609954 
L 262.648456 189.585823 
L 283.544055 178.047323 
L 238.225028 141.609954 
" style="fill:none;stroke:#ffffff;stroke-width:10;"/>
    <path clip-path="url(#pc1ccdd3fb3)" d="M 203.760858 201.124323 
L 240.395999 201.124323 
L 221.942743 215.395626 
L 203.760858 201.124323 
" style="fill:none;stroke:#ffffff;stroke-width:10;"/>
    <path clip-path="url(#pc1ccdd3fb3)" d="M 143.787774 111.549124 
L 133.204289 79.059137 
L 149.486574 45.050926 
L 185.578973 66.609703 
L 143.787774 111.549124 
" style="fill:none;stroke:#ffffff;stroke-width:10;"/>
    <path clip-path="url(#pc1ccdd3fb3)" d="M 258.849256 67.216992 
L 293.313426 44.443636 
L 310.138454 79.666426 
L 301.72594 112.156414 
L 258.849256 67.216992 
" style="fill:none;stroke:#ffffff;stroke-width:10;"/>
    <path clip-path="url(#pc1ccdd3fb3)" d="M 143.787774 111.549124 
L 126.962746 182.601994 
L 146.501488 216.610205 
L 222.485486 242.116364 
L 297.92674 216.610205 
L 315.837254 183.209284 
L 301.72594 112.156414 
L 258.849256 67.216992 
L 185.578973 66.609703 
L 143.787774 111.549124 
" style="fill:none;stroke:#ffffff;stroke-width:10;"/>
   </g>
  </g>
 </g>
 <defs>
  <clipPath id="pc1ccdd3fb3">
   <rect height="217.44" width="207.761959" x="117.519021" y="34.56"/>
  </clipPath>
 </defs>
</svg>
